<svg width="1558" height="914" viewBox="0 0 1558 914" fill="none" xmlns="http://www.w3.org/2000/svg">
<path d="M389.5 130.5V0.5H519.5V130.5H389.5Z" stroke="#F5F3F3"/>
<path d="M130.5 130.5V0.5H260.5V130.5H130.5Z" stroke="#F5F3F3"/>
<path d="M0.5 260.5V130.5H130.5V260.5H0.5Z" stroke="#F5F3F3"/>
<path d="M389.5 260.5V130.5H519.5V260.5H389.5Z" stroke="#F5F3F3"/>
<path d="M259.5 260.5V130.5H389.5V260.5H259.5Z" stroke="#F5F3F3"/>
<path d="M130.5 260.5V130.5H260.5V260.5H130.5Z" stroke="#F5F3F3"/>
<path d="M389.5 391.5V261.5H519.5V391.5H389.5Z" stroke="#F5F3F3"/>
<path d="M259.5 391.5V261.5H389.5V391.5H259.5Z" stroke="#F5F3F3"/>
<path d="M130.5 391.5V261.5H260.5V391.5H130.5Z" stroke="#F5F3F3"/>
<path d="M389.5 521.5V391.5H519.5V521.5H389.5Z" stroke="#F5F3F3"/>
<path d="M259.5 521.5V391.5H389.5V521.5H259.5Z" stroke="#F5F3F3"/>
<path d="M130.5 521.5V391.5H260.5V521.5H130.5Z" stroke="#F5F3F3"/>
<path d="M0.5 652.5V522.5H130.5V652.5H0.5Z" stroke="#F5F3F3"/>
<path d="M389.5 652.5V522.5H519.5V652.5H389.5Z" stroke="#F5F3F3"/>
<path d="M259.5 652.5V522.5H389.5V652.5H259.5Z" stroke="#F5F3F3"/>
<path d="M130.5 652.5V522.5H260.5V652.5H130.5Z" stroke="#F5F3F3"/>
<path d="M0.5 782.5V652.5H130.5V782.5H0.5Z" stroke="#F5F3F3"/>
<path d="M389.5 782.5V652.5H519.5V782.5H389.5Z" stroke="#F5F3F3"/>
<path d="M259.5 782.5V652.5H389.5V782.5H259.5Z" stroke="#F5F3F3"/>
<path d="M130.5 782.5V652.5H260.5V782.5H130.5Z" stroke="#F5F3F3"/>
<path d="M259.5 913.5V783.5H389.5V913.5H259.5Z" stroke="#F5F3F3"/>
<path d="M130.5 913.5V783.5H260.5V913.5H130.5Z" stroke="#F5F3F3"/>
<path d="M1297.5 130.5V0.5H1427.5V130.5H1297.5Z" stroke="#F5F3F3"/>
<path d="M1168.5 130.5V0.5H1298.5V130.5H1168.5Z" stroke="#F5F3F3"/>
<path d="M1038.5 260.5V130.5H1168.5V260.5H1038.5Z" stroke="#F5F3F3"/>
<path d="M1427.5 260.5V130.5H1557.5V260.5H1427.5Z" stroke="#F5F3F3"/>
<path d="M1297.5 260.5V130.5H1427.5V260.5H1297.5Z" stroke="#F5F3F3"/>
<path d="M1168.5 260.5V130.5H1298.5V260.5H1168.5Z" stroke="#F5F3F3"/>
<path d="M1038.5 391.5V261.5H1168.5V391.5H1038.5Z" stroke="#F5F3F3"/>
<path d="M1427.5 391.5V261.5H1557.5V391.5H1427.5Z" stroke="#F5F3F3"/>
<path d="M1297.5 391.5V261.5H1427.5V391.5H1297.5Z" stroke="#F5F3F3"/>
<path d="M1168.5 391.5V261.5H1298.5V391.5H1168.5Z" stroke="#F5F3F3"/>
<path d="M1038.5 521.5V391.5H1168.5V521.5H1038.5Z" stroke="#F5F3F3"/>
<path d="M1297.5 521.5V391.5H1427.5V521.5H1297.5Z" stroke="#F5F3F3"/>
<path d="M1168.5 521.5V391.5H1298.5V521.5H1168.5Z" stroke="#F5F3F3"/>
<path d="M1038.5 652.5V522.5H1168.5V652.5H1038.5Z" stroke="#F5F3F3"/>
<path d="M1297.5 652.5V522.5H1427.5V652.5H1297.5Z" stroke="#F5F3F3"/>
<path d="M1168.5 652.5V522.5H1298.5V652.5H1168.5Z" stroke="#F5F3F3"/>
<path d="M1038.5 782.5V652.5H1168.5V782.5H1038.5Z" stroke="#F5F3F3"/>
<path d="M1427.5 782.5V652.5H1557.5V782.5H1427.5Z" stroke="#F5F3F3"/>
<path d="M1297.5 782.5V652.5H1427.5V782.5H1297.5Z" stroke="#F5F3F3"/>
<path d="M1168.5 782.5V652.5H1298.5V782.5H1168.5Z" stroke="#F5F3F3"/>
<path d="M1038.5 913.5V783.5H1168.5V913.5H1038.5Z" stroke="#F5F3F3"/>
<path d="M1297.5 913.5V783.5H1427.5V913.5H1297.5Z" stroke="#F5F3F3"/>
<path d="M908.5 130.5V0.5H1038.5V130.5H908.5Z" stroke="#F5F3F3"/>
<path d="M778.5 130.5V0.5H908.5V130.5H778.5Z" stroke="#F5F3F3"/>
<path d="M519.5 260.5V130.5H649.5V260.5H519.5Z" stroke="#F5F3F3"/>
<path d="M908.5 260.5V130.5H1038.5V260.5H908.5Z" stroke="#F5F3F3"/>
<path d="M778.5 260.5V130.5H908.5V260.5H778.5Z" stroke="#F5F3F3"/>
<path d="M649.5 260.5V130.5H779.5V260.5H649.5Z" stroke="#F5F3F3"/>
<path d="M519.5 391.5V261.5H649.5V391.5H519.5Z" stroke="#F5F3F3"/>
<path d="M908.5 391.5V261.5H1038.5V391.5H908.5Z" stroke="#F5F3F3"/>
<path d="M778.5 391.5V261.5H908.5V391.5H778.5Z" stroke="#F5F3F3"/>
<path d="M649.5 391.5V261.5H779.5V391.5H649.5Z" stroke="#F5F3F3"/>
<path d="M519.5 521.5V391.5H649.5V521.5H519.5Z" stroke="#F5F3F3"/>
<path d="M908.5 521.5V391.5H1038.5V521.5H908.5Z" stroke="#F5F3F3"/>
<path d="M778.5 521.5V391.5H908.5V521.5H778.5Z" stroke="#F5F3F3"/>
<path d="M649.5 521.5V391.5H779.5V521.5H649.5Z" stroke="#F5F3F3"/>
<path d="M519.5 652.5V522.5H649.5V652.5H519.5Z" stroke="#F5F3F3"/>
<path d="M908.5 652.5V522.5H1038.5V652.5H908.5Z" stroke="#F5F3F3"/>
<path d="M778.5 652.5V522.5H908.5V652.5H778.5Z" stroke="#F5F3F3"/>
<path d="M649.5 652.5V522.5H779.5V652.5H649.5Z" stroke="#F5F3F3"/>
<path d="M519.5 782.5V652.5H649.5V782.5H519.5Z" stroke="#F5F3F3"/>
<path d="M908.5 782.5V652.5H1038.5V782.5H908.5Z" stroke="#F5F3F3"/>
<path d="M778.5 782.5V652.5H908.5V782.5H778.5Z" stroke="#F5F3F3"/>
<path d="M649.5 782.5V652.5H779.5V782.5H649.5Z" stroke="#F5F3F3"/>
<path d="M519.5 913.5V783.5H649.5V913.5H519.5Z" stroke="#F5F3F3"/>
<path d="M908.5 913.5V783.5H1038.5V913.5H908.5Z" stroke="#F5F3F3"/>
</svg>
